<svg xmlns="http://www.w3.org/2000/svg" width="1200" height="400"><path d="m-15.2-21.27-21.4 407.41s45 20.06 89.38-17.11a60.46 60.46 0 0 0 12.73 8.9c26.6 14.18 53.06 20.58 80.08 19.16 25.96-1.37 31.42-3.6 52.36-14.2 9.36.82 37.48 3.24 59.33 4.16 27.57 1.17 51.31 1.32 76.17.26 33.26-1.41 64.96-4.6 100.2-13.37 34.93-8.68 48.66-14 72.71-25.06 11.52 1.82 61.74 10.82 92.63 8.23 34.2-2.87 65.52-12.04 99.6-26.06a397.58 397.58 0 0 0 41.57 22.3c10.88 5 34.55 11.92 62.03 11.3 34.32-.8 59.14-9.16 75.83-16.76 18.63-8.48 29.95-17.43 34.5-21.43 13.99 8.84 53.26 27.46 126.43 39.82 102.5 17.31 173.4-4.55 173.4-4.55l-1.81-376.67zm330.4 94.72c87.27-24.56 134.03 41.43 134.03 41.43s-29.33-24.56-91.96-15.41c-62.64 9.15-117.22 56.89-134.02 68.91-16.8 12.03 4.68-70.36 91.95-94.93zM608 253.05c9.22.69 17.49 2.94 39.49 29.45 22 26.51 50.68 28.1 50.68 28.1s-29.35 12.63-58.84-1.2c-25.4-11.93-36-42.2-31.34-56.35zM23.18 286.7s1.03 21.83 6.43 33.59c8.3 18.05 23.33 27.22 19.35 30.29-3.97 3.06-27.47-3.87-34.46-20.45-7-16.58 8.68-43.43 8.68-43.43z" style="opacity:1;fill:#aaa;fill-opacity:.18;stroke:none;stroke-linecap:round;stroke-linejoin:round;stroke-opacity:1"/></svg>